<svg xmlns="http://www.w3.org/2000/svg" viewBox="0 0 24 24" fill="#33c2cc">
  <path d="M13.983 8.187h2.119v-2.03h-2.119zm-2.722 0h2.119v-2.03h-2.119zm0-2.723h2.119v-2.029h-2.119zm-2.722 2.723h2.119v-2.03H8.539zm0-2.723h2.119v-2.029H8.539zm-2.722 2.723h2.119v-2.03H5.817zm2.722 2.722h2.119v-2.03H8.539zm-2.722 0h2.119v-2.03H5.817zm-2.723 0h2.119v-2.03H3.094zm0-2.722h2.119v-2.03H3.094zm19.897 2c-.105-.339-.364-.612-.7-.785-.4-.2-.843-.312-1.294-.33-.284-.014-.567-.008-.85.018-.184.017-.37.033-.556.053-.102.011-.19.043-.258.125-.13.156-.251.319-.367.485-.119.171-.23.35-.33.535-.069.128-.152.191-.294.182-1.815-.113-3.606.31-5.263 1.05-.181.081-.258.053-.338-.124-.131-.29-.29-.569-.47-.834-.134-.196-.289-.379-.464-.543a.583.583 0 0 0-.414-.176H2.083c-.114 0-.22.042-.3.12-.08.08-.12.186-.12.3v10.3c0 .114.04.22.12.3.08.08.186.12.3.12h17.94c.59 0 1.18-.087 1.748-.261.76-.232 1.458-.667 2.008-1.25.76-.807 1.156-1.879 1.156-2.99 0-1.68-.847-3.21-2.28-4.085z"/>
</svg>
