<svg xmlns="http://www.w3.org/2000/svg" viewBox="0 0 448 512" fill="#33c2cc">
  <path d="M439.8 200.5c-7.7-30.9-22.3-54.2-53.4-54.2h-40.1v47.4c0 36.8-31.2 67.8-68.6 67.8H172.7c-29.2 0-53.4 25-53.4 54.3v101.7c0 29 25.2 46 53.4 54.3 33.8 9.9 66.3 11.7 106.8 0 26.9-7.8 53.4-23.5 53.4-54.3v-40.7H226.2c-26.2 0-46.5-23.4-46.5-47.3v-47.4h120.7c31.2 0 53.4-21.8 53.4-54.2v-80.7h86c31.2 0 49.3-14.9 53.4-47.3.3-2.6.3-5.3 0-7.9zM286 384c-13.3 0-24-10.7-24-24s10.7-24 24-24 24 10.7 24 24-10.7 24-24 24zM8.2 311.5c7.7 30.9 22.3 54.2 53.4 54.2h40.1v-47.4c0-36.8 31.2-67.8 68.6-67.8h104.9c29.2 0 53.4-25 53.4-54.3V194.5c0-29-25.2-46-53.4-54.3-33.8-9.9-66.3-11.7-106.8 0-26.9 7.8-53.4 23.5-53.4 54.3v40.7h107.1c26.2 0 46.5 23.4 46.5 47.3v47.4H98c-31.2 0-53.4 21.8-53.4 54.2v80.7h-86c-31.2 0-49.3 14.9-53.4 47.3-.3 2.6-.3 5.3 0 7.9zM162 128c13.3 0 24 10.7 24 24s-10.7 24-24 24-24-10.7-24-24 10.7-24 24-24z"/>
</svg>
